REM DIRINDEX 1\2\6,1\2\7,1\2\8,1\3\9,1\3\10,1\3\11,1\4\12,1\4\13,1\4\14,1\5\15,1\5\16,1\5\17,1\5\18
REM DIRNAME folder01,folder02,folder03,folder04,folder05,folder06,folder07,folder08,folder09,folder10,folder11,folder12,folder13,folder14,folder15,folder16,folder17,folder18
TITLE ""
FILE "" MP3
  TRACK 01 AUDIO
    TITLE "16:cjc019_6171"
    INDEX 01 00:00:00
  TRACK 02 AUDIO
    TITLE "0:"
    INDEX 01 00:01:17
  TRACK 03 AUDIO
    TITLE "18:cjc019_6172"
    INDEX 01 00:02:00
  TRACK 04 AUDIO
    TITLE "0:"
    INDEX 01 00:05:48
  TRACK 05 AUDIO
    TITLE "17:cjc019_6173"
    INDEX 01 00:06:24
  TRACK 06 AUDIO
    TITLE "0:"
    INDEX 01 00:07:52
  TRACK 07 AUDIO
    TITLE "16:cjc019_6174"
    INDEX 01 00:09:30
  TRACK 08 AUDIO
    TITLE "0:"
    INDEX 01 00:10:68
  TRACK 09 AUDIO
    TITLE "18:cjc019_6175"
    INDEX 01 00:11:52
  TRACK 10 AUDIO
    TITLE "0:"
    INDEX 01 00:13:33
  TRACK 11 AUDIO
    TITLE "17:cjc019_6176"
    INDEX 01 00:14:07
  TRACK 12 AUDIO
    TITLE "0:"
    INDEX 01 00:15:44
  TRACK 13 AUDIO
    TITLE "16:cjc019_6177"
    INDEX 01 00:17:29
  TRACK 14 AUDIO
    TITLE "0:"
    INDEX 01 00:18:74
  TRACK 15 AUDIO
    TITLE "18:cjc019_6178"
    INDEX 01 00:19:56
  TRACK 16 AUDIO
    TITLE "0:"
    INDEX 01 00:22:62
  TRACK 17 AUDIO
    TITLE "17:cjc019_6179"
    INDEX 01 00:23:53
  TRACK 18 AUDIO
    TITLE "0:"
    INDEX 01 00:25:17
  TRACK 19 AUDIO
    TITLE "16:cjc019_6180"
    INDEX 01 00:27:02
  TRACK 20 AUDIO
    TITLE "0:"
    INDEX 01 00:28:47
  TRACK 21 AUDIO
    TITLE "18:cjc019_6181"
    INDEX 01 00:29:27
  TRACK 22 AUDIO
    TITLE "0:"
    INDEX 01 00:30:38
  TRACK 23 AUDIO
    TITLE "17:cjc019_6182"
    INDEX 01 00:31:10
  TRACK 24 AUDIO
    TITLE "0:"
    INDEX 01 00:32:56
  TRACK 25 AUDIO
    TITLE "16:cjc019_6183"
    INDEX 01 00:34:32
  TRACK 26 AUDIO
    TITLE "0:"
    INDEX 01 00:35:63
  TRACK 27 AUDIO
    TITLE "18:cjc019_6184"
    INDEX 01 00:36:44
  TRACK 28 AUDIO
    TITLE "0:"
    INDEX 01 00:38:00
  TRACK 29 AUDIO
    TITLE "17:cjc019_6185"
    INDEX 01 00:38:59
  TRACK 30 AUDIO
    TITLE "0:"
    INDEX 01 00:40:15
  TRACK 31 AUDIO
    TITLE "16:cjc019_6186"
    INDEX 01 00:42:00
  TRACK 32 AUDIO
    TITLE "0:"
    INDEX 01 00:43:11
  TRACK 33 AUDIO
    TITLE "18:cjc019_6187"
    INDEX 01 00:43:70
  TRACK 34 AUDIO
    TITLE "0:"
    INDEX 01 00:46:17
  TRACK 35 AUDIO
    TITLE "17:cjc019_6188"
    INDEX 01 00:46:74
  TRACK 36 AUDIO
    TITLE "0:"
    INDEX 01 00:48:14
  TRACK 37 AUDIO
    TITLE "16:cjc019_6189"
    INDEX 01 00:49:74
  TRACK 38 AUDIO
    TITLE "0:"
    INDEX 01 00:51:26
  TRACK 39 AUDIO
    TITLE "18:cjc019_6190"
    INDEX 01 00:52:10
  TRACK 40 AUDIO
    TITLE "0:"
    INDEX 01 00:54:21
  TRACK 41 AUDIO
    TITLE "17:cjc019_6191"
    INDEX 01 00:55:03
  TRACK 42 AUDIO
    TITLE "0:"
    INDEX 01 00:56:33
  TRACK 43 AUDIO
    TITLE "16:cjc019_6192"
    INDEX 01 00:58:13
  TRACK 44 AUDIO
    TITLE "0:"
    INDEX 01 00:59:47
  TRACK 45 AUDIO
    TITLE "18:cjc019_6193"
    INDEX 01 01:00:25
  TRACK 46 AUDIO
    TITLE "0:"
    INDEX 01 01:03:14
  TRACK 47 AUDIO
    TITLE "17:cjc019_6194"
    INDEX 01 01:03:63
  TRACK 48 AUDIO
    TITLE "0:"
    INDEX 01 01:05:26
  TRACK 49 AUDIO
    TITLE "16:cjc019_6195"
    INDEX 01 01:07:04
  TRACK 50 AUDIO
    TITLE "0:"
    INDEX 01 01:08:23
  TRACK 51 AUDIO
    TITLE "18:cjc019_6196"
    INDEX 01 01:09:07
  TRACK 52 AUDIO
    TITLE "0:"
    INDEX 01 01:10:14
  TRACK 53 AUDIO
    TITLE "17:cjc019_6197"
    INDEX 01 01:10:61
  TRACK 54 AUDIO
    TITLE "0:"
    INDEX 01 01:12:11
  TRACK 55 AUDIO
    TITLE "16:cjc019_6198"
    INDEX 01 01:13:71
  TRACK 56 AUDIO
    TITLE "0:"
    INDEX 01 01:15:42
  TRACK 57 AUDIO
    TITLE "18:cjc019_6199"
    INDEX 01 01:16:28
  TRACK 58 AUDIO
    TITLE "0:"
    INDEX 01 01:17:57
  TRACK 59 AUDIO
    TITLE "17:cjc019_6200"
    INDEX 01 01:18:37
  TRACK 60 AUDIO
    TITLE "0:"
    INDEX 01 01:20:06
  TRACK 61 AUDIO
    TITLE "16:cjc019_6201"
    INDEX 01 01:21:69
  TRACK 62 AUDIO
    TITLE "0:"
    INDEX 01 01:23:20
  TRACK 63 AUDIO
    TITLE "18:cjc019_6202"
    INDEX 01 01:24:16
  TRACK 64 AUDIO
    TITLE "0:"
    INDEX 01 01:26:38
  TRACK 65 AUDIO
    TITLE "17:cjc019_6203"
    INDEX 01 01:27:18
  TRACK 66 AUDIO
    TITLE "0:"
    INDEX 01 01:28:47
  TRACK 67 AUDIO
    TITLE "16:cjc019_6204"
    INDEX 01 01:30:30
  TRACK 68 AUDIO
    TITLE "0:"
    INDEX 01 01:31:71
  TRACK 69 AUDIO
    TITLE "18:cjc019_6205"
    INDEX 01 01:32:45
  TRACK 70 AUDIO
    TITLE "0:"
    INDEX 01 01:36:47
  TRACK 71 AUDIO
    TITLE "17:cjc019_6206"
    INDEX 01 01:37:24
  TRACK 72 AUDIO
    TITLE "0:"
    INDEX 01 01:38:69
  TRACK 73 AUDIO
    TITLE "16:cjc019_6207"
    INDEX 01 01:40:52
  TRACK 74 AUDIO
    TITLE "0:"
    INDEX 01 01:42:00
  TRACK 75 AUDIO
    TITLE "18:cjc019_6208"
    INDEX 01 01:42:63
  TRACK 76 AUDIO
    TITLE "0:"
    INDEX 01 01:43:74
  TRACK 77 AUDIO
    TITLE "17:cjc019_6209"
    INDEX 01 01:44:56
  TRACK 78 AUDIO
    TITLE "0:"
    INDEX 01 01:46:08
  TRACK 79 AUDIO
    TITLE "16:cjc019_6210"
    INDEX 01 01:47:62
  TRACK 80 AUDIO
    TITLE "0:"
    INDEX 01 01:49:18
  TRACK 81 AUDIO
    TITLE "18:cjc019_6211"
    INDEX 01 01:50:02
  TRACK 82 AUDIO
    TITLE "0:"
    INDEX 01 01:52:49
  TRACK 83 AUDIO
    TITLE "17:cjc019_6212"
    INDEX 01 01:53:25
  TRACK 84 AUDIO
    TITLE "0:"
    INDEX 01 01:54:50
  TRACK 85 AUDIO
    TITLE "16:cjc019_6213"
    INDEX 01 01:56:30
  TRACK 86 AUDIO
    TITLE "0:"
    INDEX 01 01:57:62
  TRACK 87 AUDIO
    TITLE "18:cjc019_6214"
    INDEX 01 01:58:52
  TRACK 88 AUDIO
    TITLE "0:"
    INDEX 01 02:00:71
  TRACK 89 AUDIO
    TITLE "17:cjc019_6215"
    INDEX 01 02:01:48
  TRACK 90 AUDIO
    TITLE "0:"
    INDEX 01 02:03:02
  TRACK 91 AUDIO
    TITLE "16:cjc019_6216"
    INDEX 01 02:04:64
  TRACK 92 AUDIO
    TITLE "0:"
    INDEX 01 02:05:74
  TRACK 93 AUDIO
    TITLE "18:cjc019_6217"
    INDEX 01 02:06:59
  TRACK 94 AUDIO
    TITLE "0:"
    INDEX 01 02:08:74
  TRACK 95 AUDIO
    TITLE "17:cjc019_6218"
    INDEX 01 02:09:56
  TRACK 96 AUDIO
    TITLE "0:"
    INDEX 01 02:10:65
  TRACK 97 AUDIO
    TITLE "16:cjc019_6219"
    INDEX 01 02:12:56
  TRACK 98 AUDIO
    TITLE "0:"
    INDEX 01 02:13:61
  TRACK 99 AUDIO
    TITLE "18:cjc019_6220"
    INDEX 01 02:14:47
  TRACK 100 AUDIO
    TITLE "0:"
    INDEX 01 02:17:38
  TRACK 101 AUDIO
    TITLE "17:cjc019_6221"
    INDEX 01 02:18:23
  TRACK 102 AUDIO
    TITLE "0:"
    INDEX 01 02:19:29
  TRACK 103 AUDIO
    TITLE "16:cjc019_6222"
    INDEX 01 02:21:12
  TRACK 104 AUDIO
    TITLE "0:"
    INDEX 01 02:22:47
  TRACK 105 AUDIO
    TITLE "18:cjc019_6223"
    INDEX 01 02:23:30
  TRACK 106 AUDIO
    TITLE "0:"
    INDEX 01 02:26:56
  TRACK 107 AUDIO
    TITLE "17:cjc019_6224"
    INDEX 01 02:27:38
  TRACK 108 AUDIO
    TITLE "0:"
    INDEX 01 02:29:02
